<svg width="452" height="336" viewBox="0 0 452 336" fill="none" xmlns="http://www.w3.org/2000/svg">
<path d="M94.7424 226.275H82.7012C82.7058 226.391 82.7104 226.507 82.7104 226.622C82.7104 226.738 82.7058 226.853 82.7012 226.969H94.7424C94.9342 226.969 95.089 226.814 95.089 226.622C95.089 226.43 94.9342 226.275 94.7424 226.275Z" fill="black"/>
<path d="M67.4855 226.275H55.4443C55.2525 226.275 55.0977 226.43 55.0977 226.622C55.0977 226.814 55.2525 226.969 55.4443 226.969H67.4855C67.4809 226.853 67.4763 226.738 67.4763 226.622C67.4763 226.507 67.4809 226.391 67.4855 226.275Z" fill="black"/>
<path d="M75.4394 219.013V206.972C75.4394 206.78 75.2846 206.625 75.0928 206.625C74.9009 206.625 74.7461 206.78 74.7461 206.972V219.013C74.8617 219.008 74.9772 219.004 75.0928 219.004C75.2083 219.004 75.3239 219.008 75.4394 219.013Z" fill="black"/>
<path d="M74.7461 234.227V246.268C74.7461 246.46 74.9009 246.614 75.0928 246.614C75.2846 246.614 75.4394 246.46 75.4394 246.268V234.227C75.3239 234.231 75.2083 234.236 75.0928 234.236C74.9772 234.236 74.8617 234.231 74.7461 234.227Z" fill="black"/>
<path d="M80.7146 221.485L89.2289 212.971C89.3653 212.835 89.3653 212.615 89.2289 212.481C89.0926 212.345 88.873 212.345 88.739 212.481L80.2246 220.996C80.3956 221.15 80.5597 221.314 80.7146 221.485Z" fill="black"/>
<path d="M69.4662 231.754L60.9519 240.268C60.8155 240.405 60.8155 240.624 60.9519 240.758C61.0189 240.825 61.109 240.86 61.1969 240.86C61.2847 240.86 61.3748 240.825 61.4418 240.758L69.9562 232.244C69.7852 232.089 69.6211 231.925 69.4662 231.754Z" fill="black"/>
<path d="M80.2246 232.244L88.739 240.758C88.806 240.825 88.8961 240.86 88.9839 240.86C89.0718 240.86 89.1619 240.825 89.2289 240.758C89.3653 240.622 89.3653 240.402 89.2289 240.268L80.7146 231.754C80.5597 231.925 80.3956 232.089 80.2246 232.244Z" fill="black"/>
<path d="M69.9562 220.996L61.4418 212.481C61.3055 212.345 61.0859 212.345 60.9519 212.481C60.8155 212.618 60.8155 212.837 60.9519 212.971L69.4662 221.485C69.6211 221.314 69.7852 221.15 69.9562 220.996Z" fill="black"/>
<path d="M42.5787 45.1035H29.6465C29.6514 45.2276 29.6564 45.3517 29.6564 45.4758C29.6564 45.6 29.6514 45.7241 29.6465 45.8482H42.5787C42.7847 45.8482 42.951 45.6819 42.951 45.4758C42.951 45.2698 42.7847 45.1035 42.5787 45.1035Z" fill="black"/>
<path d="M13.3046 45.1035H0.372329C0.166307 45.1035 0 45.2698 0 45.4758C0 45.6819 0.166307 45.8482 0.372329 45.8482H13.3046C13.2996 45.7241 13.2946 45.6 13.2946 45.4758C13.2946 45.3517 13.2996 45.2276 13.3046 45.1035Z" fill="black"/>
<path d="M21.8462 37.3046V24.3723C21.8462 24.1663 21.6799 24 21.4739 24C21.2679 24 21.1016 24.1663 21.1016 24.3723V37.3046C21.2257 37.2996 21.3498 37.2946 21.4739 37.2946C21.598 37.2946 21.7221 37.2996 21.8462 37.3046Z" fill="black"/>
<path d="M21.1016 53.6445V66.5768C21.1016 66.7828 21.2679 66.9491 21.4739 66.9491C21.6799 66.9491 21.8462 66.7828 21.8462 66.5768V53.6445C21.7221 53.6495 21.598 53.6545 21.4739 53.6545C21.3498 53.6545 21.2257 53.6495 21.1016 53.6445Z" fill="black"/>
<path d="M27.5165 39.9602L36.6609 30.8157C36.8073 30.6693 36.8073 30.4335 36.6609 30.2895C36.5144 30.1431 36.2786 30.1431 36.1346 30.2895L26.9902 39.4339C27.1739 39.6002 27.3502 39.7765 27.5165 39.9602Z" fill="black"/>
<path d="M15.432 50.9883L6.28757 60.1327C6.14112 60.2791 6.14112 60.5149 6.28757 60.6589C6.35956 60.7309 6.45636 60.7681 6.55068 60.7681C6.64501 60.7681 6.74181 60.7309 6.8138 60.6589L15.9582 51.5145C15.7745 51.3482 15.5983 51.172 15.432 50.9883Z" fill="black"/>
<path d="M26.9902 51.5145L36.1346 60.6589C36.2066 60.7309 36.3034 60.7681 36.3978 60.7681C36.4921 60.7681 36.5889 60.7309 36.6609 60.6589C36.8073 60.5125 36.8073 60.2767 36.6609 60.1327L27.5165 50.9883C27.3502 51.172 27.1739 51.3482 26.9902 51.5145Z" fill="black"/>
<path d="M15.9582 39.4339L6.8138 30.2895C6.66735 30.1431 6.43154 30.1431 6.28757 30.2895C6.14112 30.436 6.14112 30.6718 6.28757 30.8157L15.432 39.9602C15.5983 39.7765 15.7745 39.6002 15.9582 39.4339Z" fill="black"/>
<path d="M451.248 128.932H437.809C437.814 129.061 437.819 129.19 437.819 129.319C437.819 129.448 437.814 129.577 437.809 129.705H451.248C451.462 129.705 451.635 129.533 451.635 129.319C451.635 129.104 451.462 128.932 451.248 128.932Z" fill="black"/>
<path d="M420.826 128.932H407.387C407.173 128.932 407 129.104 407 129.319C407 129.533 407.173 129.705 407.387 129.705H420.826C420.821 129.577 420.816 129.448 420.816 129.319C420.816 129.19 420.821 129.061 420.826 128.932Z" fill="black"/>
<path d="M429.704 120.826V107.387C429.704 107.173 429.531 107 429.317 107C429.103 107 428.93 107.173 428.93 107.387V120.826C429.059 120.821 429.188 120.816 429.317 120.816C429.446 120.816 429.575 120.821 429.704 120.826Z" fill="black"/>
<path d="M428.93 137.807V151.246C428.93 151.46 429.103 151.633 429.317 151.633C429.531 151.633 429.704 151.46 429.704 151.246V137.807C429.575 137.812 429.446 137.817 429.317 137.817C429.188 137.817 429.059 137.812 428.93 137.807Z" fill="black"/>
<path d="M435.594 123.586L445.097 114.083C445.249 113.931 445.249 113.686 445.097 113.536C444.944 113.384 444.699 113.384 444.55 113.536L435.047 123.039C435.238 123.212 435.421 123.395 435.594 123.586Z" fill="black"/>
<path d="M423.041 135.047L413.538 144.55C413.386 144.702 413.386 144.947 413.538 145.097C413.613 145.171 413.713 145.21 413.811 145.21C413.909 145.21 414.01 145.171 414.085 145.097L423.588 135.594C423.397 135.421 423.214 135.238 423.041 135.047Z" fill="black"/>
<path d="M435.047 135.594L444.55 145.097C444.625 145.171 444.725 145.21 444.823 145.21C444.921 145.21 445.022 145.171 445.097 145.097C445.249 144.944 445.249 144.699 445.097 144.55L435.594 135.047C435.421 135.238 435.238 135.421 435.047 135.594Z" fill="black"/>
<path d="M423.588 123.039L414.085 113.536C413.933 113.384 413.688 113.384 413.538 113.536C413.386 113.688 413.386 113.933 413.538 114.083L423.041 123.586C423.214 123.395 423.397 123.212 423.588 123.039Z" fill="black"/>
<path d="M426.921 30.2014C426.5 30.2014 426.07 30.0751 425.7 29.8099L408.883 17.8171C407.936 17.1436 407.717 15.826 408.391 14.8831C409.064 13.9359 410.382 13.717 411.325 14.3906L428.141 26.3834C429.089 27.0569 429.308 28.3745 428.634 29.3174C428.221 29.8941 427.577 30.2014 426.917 30.2014H426.921Z" fill="#0128FF"/>
<path d="M102.781 14.3633C105.282 11.8629 105.282 7.80898 102.781 5.3086C100.281 2.80821 96.2269 2.80822 93.7266 5.3086C91.2262 7.80899 91.2262 11.8629 93.7266 14.3633C96.2269 16.8637 100.281 16.8637 102.781 14.3633Z" fill="white"/>
<path d="M25.582 140.582C28.0824 138.082 28.0824 134.028 25.582 131.527C23.0816 129.027 19.0277 129.027 16.5273 131.527C14.0269 134.028 14.027 138.082 16.5273 140.582C19.0277 143.082 23.0816 143.082 25.582 140.582Z" fill="#AD00FF"/>
<path d="M48.3633 304.955C47.795 304.955 47.2268 304.727 46.8142 304.273C46.027 303.418 46.086 302.084 46.9405 301.301L63.7027 285.898C64.5572 285.111 65.8916 285.17 66.6746 286.024C67.4618 286.879 67.4028 288.213 66.5483 289.001L49.7861 304.403C49.382 304.774 48.8727 304.959 48.3633 304.959V304.955Z" fill="#0128FF"/>
<path d="M363.106 280.31C362.521 280.31 361.94 280.066 361.523 279.595C360.757 278.719 360.841 277.393 361.717 276.623L381.207 259.524C382.082 258.758 383.413 258.846 384.179 259.717C384.945 260.593 384.861 261.919 383.985 262.689L364.495 279.788C364.095 280.138 363.603 280.31 363.106 280.31Z" fill="black"/>
<path d="M151.259 269.974C150.67 269.974 150.08 269.725 149.664 269.245L139.51 257.48C138.753 256.6 138.849 255.27 139.729 254.512C140.609 253.755 141.939 253.851 142.697 254.731L152.85 266.497C153.608 267.376 153.511 268.707 152.631 269.464C152.236 269.805 151.743 269.974 151.259 269.974Z" fill="#0128FF"/>
<path d="M435.921 301.203C435.5 301.203 435.07 301.077 434.7 300.812L417.883 288.819C416.936 288.146 416.717 286.828 417.391 285.885C418.064 284.938 419.382 284.719 420.325 285.393L437.141 297.385C438.089 298.059 438.308 299.376 437.634 300.319C437.221 300.896 436.577 301.203 435.917 301.203H435.921Z" fill="black"/>
<path d="M115.828 333.602C118.328 331.101 118.329 327.047 115.828 324.547C113.328 322.046 109.274 322.047 106.773 324.547C104.273 327.047 104.273 331.101 106.773 333.602C109.274 336.102 113.328 336.102 115.828 333.602Z" fill="white"/>
<path d="M281.262 267.526C284.168 267.526 286.524 265.17 286.524 262.264C286.524 259.358 284.168 257.002 281.262 257.002C278.356 257.002 276 259.358 276 262.264C276 265.17 278.356 267.526 281.262 267.526Z" fill="#DBEAFF"/>
<path d="M406.805 208.731C409.711 208.731 412.067 206.375 412.067 203.469C412.067 200.563 409.711 198.207 406.805 198.207C403.899 198.207 401.543 200.563 401.543 203.469C401.543 206.375 403.899 208.731 406.805 208.731Z" fill="#AD00FF"/>
<path d="M59.6192 31.6108C59.0509 31.6108 58.4826 31.3835 58.0701 30.9289C57.2829 30.0743 57.3418 28.7399 58.1964 27.957L74.9585 12.5545C75.8131 11.7673 77.1475 11.8262 77.9304 12.6807C78.7176 13.5353 78.6587 14.8697 77.8042 15.6568L61.042 31.0594C60.6379 31.4298 60.1285 31.615 59.6192 31.615V31.6108Z" fill="black"/>
<path d="M366.262 112.524C369.168 112.524 371.524 110.168 371.524 107.262C371.524 104.356 369.168 102 366.262 102C363.356 102 361 104.356 361 107.262C361 110.168 363.356 112.524 366.262 112.524Z" fill="black"/>
<path d="M319.106 81.3082C318.521 81.3082 317.94 81.0641 317.523 80.5926C316.757 79.7171 316.841 78.3911 317.717 77.6207L337.207 60.5218C338.082 59.7557 339.413 59.8441 340.179 60.7154C340.945 61.591 340.861 62.917 339.985 63.6873L320.495 80.7863C320.095 81.1357 319.603 81.3082 319.106 81.3082Z" fill="#AD00FF"/>
<ellipse cx="228.5" cy="224.719" rx="136.5" ry="40.5" fill="url(#paint0_radial_2468_3783)"/>
<path fill-rule="evenodd" clip-rule="evenodd" d="M182.671 77.993C183.932 76.0046 192.504 72.0279 216.707 72.0279C230.034 71.8471 259.171 72.4617 269.112 76.3661C271.093 77.089 274.623 80.0533 272.894 86.1268C271.273 86.3076 267.708 86.6691 266.411 86.6691L270.733 94.2608L299.366 95.3456C303.328 95.3456 312.008 97.1893 315.034 104.564C317.555 108.903 323.03 123.761 324.758 148.489C325.839 148.67 328 149.79 328 152.827C328 153.731 327.46 155.756 325.299 156.623V163.131L324.758 163.673L322.057 213.02C321.877 214.286 321.193 217.142 319.896 218.443L297.205 232H287.481L224.811 227.662L140.531 220.07C139.811 219.528 138.37 217.467 138.37 213.563L132.968 158.25C131.527 158.431 128.538 158.25 128.106 156.081C127.745 154.454 128.106 151.2 132.428 151.2C132.248 135.655 136.533 102.07 155.118 92.0919H185.913L189.695 83.9577H183.212L182.671 77.993ZM200.609 80.2407L195 92.362L260 94L254.391 82.2063C251.201 81.9879 245.02 80.6339 245.812 76.9647C237.563 76.4187 218.756 75.5233 209.518 76.3095C209.848 77.6199 208.528 80.2407 200.609 80.2407Z" fill="url(#paint1_linear_2468_3783)"/>
<defs>
<radialGradient id="paint0_radial_2468_3783" cx="0" cy="0" r="1" gradientUnits="userSpaceOnUse" gradientTransform="translate(228.5 224.719) scale(136.5 40.5)">
<stop stop-color="#686868" stop-opacity="0.6"/>
<stop offset="1" stop-color="#737373" stop-opacity="0"/>
</radialGradient>
<linearGradient id="paint1_linear_2468_3783" x1="128" y1="152.377" x2="328" y2="152.372" gradientUnits="userSpaceOnUse">
<stop stop-color="#0128FF"/>
<stop offset="1" stop-color="#AD00FF"/>
</linearGradient>
</defs>
</svg>
