<svg width="202" height="162" viewBox="0 0 202 162" fill="none" xmlns="http://www.w3.org/2000/svg">
<path d="M89.7074 1.02788C65.504 1.02788 56.9319 5.0046 55.6714 6.99296L56.2115 12.9577H62.6946L58.9128 21.0919H28.1183C9.5335 31.0695 5.24752 64.6549 5.42762 80.2003C1.10558 80.2003 0.74541 83.454 1.10558 85.0809C1.53778 87.25 4.5272 87.4307 5.96788 87.25L11.3704 142.562C11.3704 146.467 12.8111 148.528 13.5314 149.07L97.8113 156.662L160.481 161H170.205L192.896 147.443C194.193 146.142 194.877 143.286 195.057 142.02L197.758 92.6728L198.299 92.1305V85.6231C200.46 84.7555 201 82.731 201 81.8272C201 78.7904 198.839 77.6697 197.758 77.489C196.03 52.761 190.555 37.9025 188.034 33.5643C185.008 26.1893 176.328 24.3456 172.366 24.3456L143.733 23.2608L139.411 15.6691C140.708 15.6691 144.273 15.3076 145.894 15.1268C147.623 9.05328 144.093 6.08904 142.112 5.36612C132.171 1.4617 103.034 0.847121 89.7074 1.02788Z" stroke="url(#paint0_linear_1951_954)"/>
<defs>
<linearGradient id="paint0_linear_1951_954" x1="1" y1="81.3771" x2="201" y2="81.3722" gradientUnits="userSpaceOnUse">
<stop stop-color="#0128FF"/>
<stop offset="1" stop-color="#AD00FF"/>
</linearGradient>
</defs>
</svg>
