<svg width="144" height="92" viewBox="0 0 144 92" fill="none" xmlns="http://www.w3.org/2000/svg">
<g id="Group 427320766">
<ellipse id="Ellipse 14" cx="72" cy="69.5" rx="72" ry="22.5" fill="url(#paint0_radial_2278_4685)"/>
<g id="Group 427320764">
<path id="Vector 2" d="M127.921 22.6344C128.798 24.1902 129.309 28.1443 129.455 29.9269C133.487 35.7609 133.327 47.753 132.742 53.0199L132.085 54.2353V59.34C131.559 65.563 129.382 68.7393 128.36 69.5495H121.567C116.833 67.9938 116.088 62.095 116.307 59.34L83.6565 62.5001C82.0788 69.112 79.493 72.0614 78.3973 72.7096L72.2616 73.1958C67.5283 73.1958 64.8841 68.01 64.1537 65.4171C63.4525 65.806 62.2545 66.0653 61.7432 66.1464L33.475 65.4171C31.722 70.6677 26.9011 71.9804 24.7097 71.9804C18.574 71.5914 16.6018 66.1464 16.3827 63.4724C15.3308 63.0835 14.4835 62.3381 14.1913 62.0139C12.4383 60.0693 12.8765 56.8282 13.3148 55.4507C12.263 52.7282 12 46.3756 12 43.5396C12.7012 38.289 15.214 35.842 16.3827 35.2748L18.1357 31.6285C20.0641 28.517 22.8836 27.253 24.0523 27.0099L33.2559 24.8222L32.5985 23.8498L33.2559 22.8775L33.475 21.419C34.001 20.4467 34.8629 20.6898 35.2281 20.9328C35.4034 21.1273 36.3238 21.1759 36.762 21.1759L38.296 19.7174L47.2804 9.02175C49.5594 6.29922 52.1744 5.13242 53.197 4.88933C54.7748 4.11147 61.0128 3.26878 63.9346 2.94467C70.4209 2.36127 81.9765 2.53953 86.9435 2.70158C88.346 1.92372 91.9106 1.40514 93.5175 1.24308L94.1749 1L108.419 2.4585C110.347 2.84743 111.852 3.26878 112.363 3.43083L114.773 5.61859C116.702 5.42412 118.499 7.32017 119.156 8.2925V9.50792L127.921 22.6344Z" fill="url(#paint1_linear_2278_4685)" stroke="url(#paint2_linear_2278_4685)" stroke-width="0.75"/>
</g>
</g>
<defs>
<radialGradient id="paint0_radial_2278_4685" cx="0" cy="0" r="1" gradientUnits="userSpaceOnUse" gradientTransform="translate(72 69.5) scale(72 22.5)">
<stop stop-color="#686868" stop-opacity="0.6"/>
<stop offset="1" stop-color="#737373" stop-opacity="0"/>
</radialGradient>
<linearGradient id="paint1_linear_2278_4685" x1="12" y1="37.268" x2="133.052" y2="37.2641" gradientUnits="userSpaceOnUse">
<stop stop-color="#0128FF"/>
<stop offset="1" stop-color="#AD00FF"/>
</linearGradient>
<linearGradient id="paint2_linear_2278_4685" x1="12" y1="37.268" x2="133.052" y2="37.2641" gradientUnits="userSpaceOnUse">
<stop stop-color="#0128FF"/>
<stop offset="1" stop-color="#AD00FF"/>
</linearGradient>
</defs>
</svg>
