<svg width="266" height="143" viewBox="0 0 266 143" fill="none" xmlns="http://www.w3.org/2000/svg">
<path d="M254.726 42.8519C256.652 45.9333 257.775 53.7654 258.096 57.2963C266.956 68.8519 266.603 92.6049 265.319 103.037L263.875 105.444V115.556C262.719 127.881 257.936 134.173 255.689 135.778H240.762C230.361 132.696 228.723 121.012 229.205 115.556L157.458 121.815C153.991 134.911 148.309 140.753 145.902 142.037L132.419 143C122.018 143 116.208 132.728 114.603 127.593C113.062 128.363 110.429 128.877 109.306 129.037L47.1893 127.593C43.3371 137.993 32.7436 140.593 27.9283 140.593C14.4457 139.822 10.112 129.037 9.63046 123.741C7.31915 122.97 5.45726 121.494 4.81523 120.852C0.963046 117 1.92609 110.58 2.88914 107.852C0.577828 102.459 0 89.8765 0 84.2593C1.54087 73.8593 7.06234 69.0123 9.63046 67.8889L13.4826 60.6667C17.7201 54.5037 23.9156 52 26.4838 51.5185L46.7077 47.1852L45.2632 45.2593L46.7077 43.3333L47.1893 40.4444C48.3449 38.5185 50.2389 39 51.0415 39.4815C51.4267 39.8667 53.4491 39.963 54.4121 39.963L57.7828 37.0741L77.5252 15.8889C82.5331 10.4963 88.2792 8.18519 90.5263 7.7037C93.9933 6.16296 107.701 4.49383 114.121 3.85185C128.374 2.6963 153.766 3.04938 164.681 3.37037C167.763 1.82963 175.595 0.802469 179.127 0.481481L180.571 0L211.87 2.88889C216.108 3.65926 219.414 4.49383 220.538 4.81482L225.834 9.14815C230.072 8.76296 234.02 12.5185 235.465 14.4444V16.8519L254.726 42.8519Z" fill="url(#paint0_linear_1345_2577)"/>
<defs>
<linearGradient id="paint0_linear_1345_2577" x1="-1.48537e-08" y1="71.837" x2="266" y2="71.8274" gradientUnits="userSpaceOnUse">
<stop stop-color="#0128FF"/>
<stop offset="1" stop-color="#AD00FF"/>
</linearGradient>
</defs>
</svg>
