<svg width="452" height="336" viewBox="0 0 452 336" fill="none" xmlns="http://www.w3.org/2000/svg">
<path d="M94.7424 226.274H82.7012C82.7058 226.39 82.7104 226.506 82.7104 226.621C82.7104 226.737 82.7058 226.852 82.7012 226.968H94.7424C94.9342 226.968 95.089 226.813 95.089 226.621C95.089 226.429 94.9342 226.274 94.7424 226.274Z" fill="black"/>
<path d="M67.4855 226.274H55.4443C55.2525 226.274 55.0977 226.429 55.0977 226.621C55.0977 226.813 55.2525 226.968 55.4443 226.968H67.4855C67.4809 226.852 67.4763 226.737 67.4763 226.621C67.4763 226.506 67.4809 226.39 67.4855 226.274Z" fill="black"/>
<path d="M75.4394 219.013V206.972C75.4394 206.78 75.2846 206.625 75.0928 206.625C74.9009 206.625 74.7461 206.78 74.7461 206.972V219.013C74.8617 219.008 74.9772 219.004 75.0928 219.004C75.2083 219.004 75.3239 219.008 75.4394 219.013Z" fill="black"/>
<path d="M74.7461 234.227V246.268C74.7461 246.46 74.9009 246.614 75.0928 246.614C75.2846 246.614 75.4394 246.46 75.4394 246.268V234.227C75.3239 234.231 75.2083 234.236 75.0928 234.236C74.9772 234.236 74.8617 234.231 74.7461 234.227Z" fill="black"/>
<path d="M80.7146 221.485L89.2289 212.971C89.3653 212.835 89.3653 212.615 89.2289 212.481C89.0926 212.345 88.873 212.345 88.739 212.481L80.2246 220.996C80.3956 221.15 80.5597 221.314 80.7146 221.485Z" fill="black"/>
<path d="M69.4662 231.754L60.9519 240.268C60.8155 240.405 60.8155 240.624 60.9519 240.758C61.0189 240.825 61.109 240.86 61.1969 240.86C61.2847 240.86 61.3748 240.825 61.4418 240.758L69.9562 232.244C69.7852 232.089 69.6211 231.925 69.4662 231.754Z" fill="black"/>
<path d="M80.2246 232.244L88.739 240.758C88.806 240.825 88.8961 240.86 88.9839 240.86C89.0718 240.86 89.1619 240.825 89.2289 240.758C89.3653 240.622 89.3653 240.402 89.2289 240.268L80.7146 231.754C80.5597 231.925 80.3956 232.089 80.2246 232.244Z" fill="black"/>
<path d="M69.9562 220.996L61.4418 212.481C61.3055 212.345 61.0859 212.345 60.9519 212.481C60.8155 212.618 60.8155 212.837 60.9519 212.971L69.4662 221.485C69.6211 221.314 69.7852 221.15 69.9562 220.996Z" fill="black"/>
<path d="M42.5787 45.1035H29.6465C29.6514 45.2276 29.6564 45.3517 29.6564 45.4758C29.6564 45.6 29.6514 45.7241 29.6465 45.8482H42.5787C42.7847 45.8482 42.951 45.6819 42.951 45.4758C42.951 45.2698 42.7847 45.1035 42.5787 45.1035Z" fill="black"/>
<path d="M13.3046 45.1035H0.372329C0.166307 45.1035 0 45.2698 0 45.4758C0 45.6819 0.166307 45.8482 0.372329 45.8482H13.3046C13.2996 45.7241 13.2946 45.6 13.2946 45.4758C13.2946 45.3517 13.2996 45.2276 13.3046 45.1035Z" fill="black"/>
<path d="M21.8462 37.3046V24.3723C21.8462 24.1663 21.6799 24 21.4739 24C21.2679 24 21.1016 24.1663 21.1016 24.3723V37.3046C21.2257 37.2996 21.3498 37.2946 21.4739 37.2946C21.598 37.2946 21.7221 37.2996 21.8462 37.3046Z" fill="black"/>
<path d="M21.1016 53.6445V66.5768C21.1016 66.7828 21.2679 66.9491 21.4739 66.9491C21.6799 66.9491 21.8462 66.7828 21.8462 66.5768V53.6445C21.7221 53.6495 21.598 53.6545 21.4739 53.6545C21.3498 53.6545 21.2257 53.6495 21.1016 53.6445Z" fill="black"/>
<path d="M27.5165 39.9602L36.6609 30.8157C36.8073 30.6693 36.8073 30.4335 36.6609 30.2895C36.5144 30.1431 36.2786 30.1431 36.1346 30.2895L26.9902 39.4339C27.1739 39.6002 27.3502 39.7765 27.5165 39.9602Z" fill="black"/>
<path d="M15.432 50.9893L6.28757 60.1337C6.14112 60.2801 6.14112 60.5159 6.28757 60.6599C6.35956 60.7319 6.45636 60.7691 6.55068 60.7691C6.64501 60.7691 6.74181 60.7319 6.8138 60.6599L15.9582 51.5155C15.7745 51.3492 15.5983 51.1729 15.432 50.9893Z" fill="black"/>
<path d="M26.9902 51.5155L36.1346 60.6599C36.2066 60.7319 36.3034 60.7691 36.3978 60.7691C36.4921 60.7691 36.5889 60.7319 36.6609 60.6599C36.8073 60.5134 36.8073 60.2776 36.6609 60.1337L27.5165 50.9893C27.3502 51.1729 27.1739 51.3492 26.9902 51.5155Z" fill="black"/>
<path d="M15.9582 39.4339L6.8138 30.2895C6.66735 30.1431 6.43154 30.1431 6.28757 30.2895C6.14112 30.436 6.14112 30.6718 6.28757 30.8157L15.432 39.9602C15.5983 39.7765 15.7745 39.6002 15.9582 39.4339Z" fill="black"/>
<path d="M451.248 128.931H437.809C437.814 129.06 437.819 129.189 437.819 129.318C437.819 129.447 437.814 129.576 437.809 129.705H451.248C451.462 129.705 451.635 129.532 451.635 129.318C451.635 129.103 451.462 128.931 451.248 128.931Z" fill="black"/>
<path d="M420.826 128.931H407.387C407.173 128.931 407 129.103 407 129.318C407 129.532 407.173 129.705 407.387 129.705H420.826C420.821 129.576 420.816 129.447 420.816 129.318C420.816 129.189 420.821 129.06 420.826 128.931Z" fill="black"/>
<path d="M429.704 120.826V107.387C429.704 107.173 429.531 107 429.317 107C429.103 107 428.93 107.173 428.93 107.387V120.826C429.059 120.821 429.188 120.816 429.317 120.816C429.446 120.816 429.575 120.821 429.704 120.826Z" fill="black"/>
<path d="M428.93 137.807V151.246C428.93 151.46 429.103 151.633 429.317 151.633C429.531 151.633 429.704 151.46 429.704 151.246V137.807C429.575 137.812 429.446 137.817 429.317 137.817C429.188 137.817 429.059 137.812 428.93 137.807Z" fill="black"/>
<path d="M435.594 123.587L445.097 114.084C445.249 113.932 445.249 113.687 445.097 113.537C444.944 113.385 444.699 113.385 444.55 113.537L435.047 123.04C435.238 123.213 435.421 123.396 435.594 123.587Z" fill="black"/>
<path d="M423.041 135.047L413.538 144.55C413.386 144.702 413.386 144.947 413.538 145.097C413.613 145.171 413.713 145.21 413.811 145.21C413.909 145.21 414.01 145.171 414.085 145.097L423.588 135.594C423.397 135.421 423.214 135.238 423.041 135.047Z" fill="black"/>
<path d="M435.047 135.594L444.55 145.097C444.625 145.171 444.725 145.21 444.823 145.21C444.921 145.21 445.022 145.171 445.097 145.097C445.249 144.944 445.249 144.699 445.097 144.55L435.594 135.047C435.421 135.238 435.238 135.421 435.047 135.594Z" fill="black"/>
<path d="M423.588 123.04L414.085 113.537C413.933 113.385 413.688 113.385 413.538 113.537C413.386 113.689 413.386 113.934 413.538 114.084L423.041 123.587C423.214 123.396 423.397 123.213 423.588 123.04Z" fill="black"/>
<path d="M426.921 30.2014C426.5 30.2014 426.07 30.0751 425.7 29.8099L408.883 17.8171C407.936 17.1436 407.717 15.826 408.391 14.8831C409.064 13.9359 410.382 13.717 411.325 14.3906L428.141 26.3834C429.089 27.0569 429.308 28.3745 428.634 29.3174C428.221 29.8941 427.577 30.2014 426.917 30.2014H426.921Z" fill="#0128FF"/>
<path d="M102.781 14.3623C105.282 11.8619 105.282 7.808 102.781 5.30762C100.281 2.80724 96.2269 2.80724 93.7266 5.30763C91.2262 7.80801 91.2262 11.8619 93.7266 14.3623C96.2269 16.8627 100.281 16.8627 102.781 14.3623Z" fill="white"/>
<path d="M25.582 140.582C28.0824 138.082 28.0824 134.028 25.582 131.527C23.0816 129.027 19.0277 129.027 16.5273 131.527C14.0269 134.028 14.027 138.082 16.5273 140.582C19.0277 143.082 23.0816 143.082 25.582 140.582Z" fill="#AD00FF"/>
<path d="M48.3633 304.953C47.795 304.953 47.2268 304.725 46.8142 304.271C46.027 303.416 46.086 302.082 46.9405 301.299L63.7027 285.896C64.5572 285.109 65.8916 285.168 66.6746 286.023C67.4618 286.877 67.4028 288.211 66.5483 288.999L49.7861 304.401C49.382 304.772 48.8727 304.957 48.3633 304.957V304.953Z" fill="#0128FF"/>
<path d="M363.106 280.308C362.521 280.308 361.94 280.064 361.523 279.593C360.757 278.717 360.841 277.391 361.717 276.621L381.207 259.522C382.082 258.756 383.413 258.844 384.179 259.715C384.945 260.591 384.861 261.917 383.985 262.687L364.495 279.786C364.095 280.136 363.603 280.308 363.106 280.308Z" fill="black"/>
<path d="M151.259 269.971C150.67 269.971 150.08 269.722 149.664 269.243L139.51 257.477C138.753 256.597 138.849 255.267 139.729 254.509C140.609 253.752 141.939 253.848 142.697 254.728L152.85 266.494C153.608 267.374 153.511 268.704 152.631 269.461C152.236 269.802 151.743 269.971 151.259 269.971Z" fill="#0128FF"/>
<path d="M435.921 301.201C435.5 301.201 435.07 301.075 434.7 300.81L417.883 288.817C416.936 288.144 416.717 286.826 417.391 285.883C418.064 284.936 419.382 284.717 420.325 285.391L437.141 297.383C438.089 298.057 438.308 299.374 437.634 300.317C437.221 300.894 436.577 301.201 435.917 301.201H435.921Z" fill="black"/>
<path d="M115.828 333.6C118.328 331.099 118.329 327.045 115.828 324.545C113.328 322.045 109.274 322.045 106.773 324.545C104.273 327.045 104.273 331.099 106.773 333.6C109.274 336.1 113.328 336.1 115.828 333.6Z" fill="white"/>
<path d="M281.262 267.523C284.168 267.523 286.524 265.167 286.524 262.261C286.524 259.355 284.168 256.999 281.262 256.999C278.356 256.999 276 259.355 276 262.261C276 265.167 278.356 267.523 281.262 267.523Z" fill="#DBEAFF"/>
<path d="M406.805 208.729C409.711 208.729 412.067 206.373 412.067 203.467C412.067 200.561 409.711 198.205 406.805 198.205C403.899 198.205 401.543 200.561 401.543 203.467C401.543 206.373 403.899 208.729 406.805 208.729Z" fill="#AD00FF"/>
<path d="M59.6192 31.6108C59.0509 31.6108 58.4826 31.3835 58.0701 30.9289C57.2829 30.0743 57.3418 28.7399 58.1964 27.957L74.9585 12.5545C75.8131 11.7673 77.1475 11.8262 77.9304 12.6807C78.7176 13.5353 78.6587 14.8697 77.8042 15.6568L61.042 31.0594C60.6379 31.4298 60.1285 31.615 59.6192 31.615V31.6108Z" fill="black"/>
<g clip-path="url(#clip0_2095_2512)">
<ellipse cx="228.5" cy="211.5" rx="154.5" ry="40.5" fill="url(#paint0_radial_2095_2512)"/>
<path d="M340.442 130.256C342.207 133.079 343.237 140.254 343.531 143.488C351.65 154.074 351.327 175.834 350.15 185.391L348.826 187.596V196.859C347.767 208.15 343.384 213.914 341.324 215.384H327.644C318.112 212.561 316.612 201.857 317.053 196.859L251.301 202.593C248.124 214.59 242.917 219.942 240.71 221.118L228.354 222C218.823 222 213.498 212.59 212.027 207.886C210.615 208.591 208.202 209.062 207.173 209.209L150.246 207.886C146.716 217.413 137.008 219.795 132.595 219.795C120.239 219.089 116.267 209.209 115.826 204.357C113.708 203.651 112.001 202.299 111.413 201.71C107.883 198.182 108.765 192.301 109.648 189.801C107.53 184.861 107 173.334 107 168.189C108.412 158.661 113.472 154.221 115.826 153.192L119.356 146.576C123.239 140.93 128.917 138.636 131.271 138.195L149.805 134.226L148.481 132.461L149.805 130.697L150.246 128.051C151.305 126.286 153.041 126.727 153.777 127.168C154.13 127.521 155.983 127.609 156.866 127.609L159.955 124.963L178.047 105.556C182.637 100.615 187.903 98.4983 189.962 98.0572C193.14 96.6458 205.702 95.1167 211.585 94.5286C224.648 93.47 247.918 93.7935 257.921 94.0875C260.745 92.6761 267.923 91.7351 271.159 91.4411L272.483 91L301.167 93.6465C305.05 94.3522 308.081 95.1167 309.11 95.4108L313.964 99.3805C317.848 99.0276 321.466 102.468 322.79 104.232V106.438L340.442 130.256Z" fill="url(#paint1_linear_2095_2512)" stroke="url(#paint2_linear_2095_2512)" stroke-width="1.5"/>
</g>
<defs>
<radialGradient id="paint0_radial_2095_2512" cx="0" cy="0" r="1" gradientUnits="userSpaceOnUse" gradientTransform="translate(228.5 211.5) scale(154.5 40.5)">
<stop stop-color="#686868" stop-opacity="0.6"/>
<stop offset="1" stop-color="#737373" stop-opacity="0"/>
</radialGradient>
<linearGradient id="paint1_linear_2095_2512" x1="107" y1="156.809" x2="350.774" y2="156.8" gradientUnits="userSpaceOnUse">
<stop stop-color="#0128FF"/>
<stop offset="1" stop-color="#AD00FF"/>
</linearGradient>
<linearGradient id="paint2_linear_2095_2512" x1="107" y1="156.809" x2="350.774" y2="156.8" gradientUnits="userSpaceOnUse">
<stop stop-color="#0128FF"/>
<stop offset="1" stop-color="#AD00FF"/>
</linearGradient>
<clipPath id="clip0_2095_2512">
<rect width="311" height="198" fill="white" transform="translate(84 72)"/>
</clipPath>
</defs>
</svg>
