<svg width="268" height="145" viewBox="0 0 268 145" fill="none" xmlns="http://www.w3.org/2000/svg">
<path d="M255.726 43.8519C257.652 46.9333 258.775 54.7654 259.096 58.2963C267.956 69.8519 267.603 93.6049 266.319 104.037L264.875 106.444V116.556C263.719 128.881 258.936 135.173 256.689 136.778H241.762C231.361 133.696 229.723 122.012 230.205 116.556L158.458 122.815C154.991 135.911 149.309 141.753 146.902 143.037L133.419 144C123.018 144 117.208 133.728 115.603 128.593C114.062 129.363 111.429 129.877 110.306 130.037L48.1893 128.593C44.3371 138.993 33.7436 141.593 28.9283 141.593C15.4457 140.822 11.112 130.037 10.6305 124.741C8.31915 123.97 6.45726 122.494 5.81523 121.852C1.96305 118 2.92609 111.58 3.88914 108.852C1.57783 103.459 1 90.8765 1 85.2593C2.54087 74.8593 8.06234 70.0123 10.6305 68.8889L14.4826 61.6667C18.7201 55.5037 24.9156 53 27.4838 52.5185L47.7077 48.1852L46.2632 46.2593L47.7077 44.3333L48.1893 41.4444C49.3449 39.5185 51.2389 40 52.0415 40.4815C52.4267 40.8667 54.4491 40.963 55.4121 40.963L58.7828 38.0741L78.5252 16.8889C83.5331 11.4963 89.2792 9.18519 91.5263 8.7037C94.9933 7.16296 108.701 5.49383 115.121 4.85185C129.374 3.6963 154.766 4.04938 165.681 4.37037C168.763 2.82963 176.595 1.80247 180.127 1.48148L181.571 1L212.87 3.88889C217.108 4.65926 220.414 5.49383 221.538 5.81482L226.834 10.1481C231.072 9.76296 235.02 13.5185 236.465 15.4444V17.8519L255.726 43.8519Z" stroke="url(#paint0_linear_1951_3007)"/>
<defs>
<linearGradient id="paint0_linear_1951_3007" x1="1" y1="72.837" x2="267" y2="72.8274" gradientUnits="userSpaceOnUse">
<stop stop-color="#0128FF"/>
<stop offset="1" stop-color="#AD00FF"/>
</linearGradient>
</defs>
</svg>
