<svg width="100" height="100" viewBox="0 0 100 100" fill="none" xmlns="http://www.w3.org/2000/svg">
<g clip-path="url(#clip0_2041_3967)">
<mask id="mask0_2041_3967" style="mask-type:luminance" maskUnits="userSpaceOnUse" x="0" y="0" width="100" height="100">
<path d="M100 0H0V100H100V0Z" fill="white"/>
</mask>
<g mask="url(#mask0_2041_3967)">
<path d="M44.7275 61.5568V60.5909C44.7464 57.2765 45.04 54.6345 45.6082 52.6648C46.1953 50.6951 47.0475 49.1042 48.165 47.892C49.2824 46.6799 50.6271 45.5814 52.1991 44.5966C53.3733 43.839 54.4244 43.053 55.3525 42.2386C56.2805 41.4242 57.0191 40.5246 57.5684 39.5398C58.1176 38.536 58.3922 37.4186 58.3922 36.1875C58.3922 34.8807 58.0797 33.7348 57.4547 32.75C56.8297 31.7652 55.9869 31.0076 54.9263 30.4773C53.8847 29.947 52.7294 29.6818 51.4604 29.6818C50.2294 29.6818 49.0646 29.9564 47.9661 30.5057C46.8676 31.036 45.968 31.8314 45.2672 32.892C44.5665 33.9337 44.1877 35.2311 44.1309 36.7841H32.54C32.6347 32.9962 33.5438 29.8712 35.2672 27.4091C36.9907 24.928 39.2729 23.0814 42.1138 21.8693C44.9547 20.6383 48.0892 20.0227 51.5172 20.0227C55.2862 20.0227 58.6195 20.6477 61.5172 21.8977C64.415 23.1288 66.6877 24.9186 68.3354 27.267C69.9832 29.6155 70.807 32.447 70.807 35.7614C70.807 37.9773 70.4377 39.947 69.6991 41.6705C68.9794 43.375 67.9661 44.8902 66.6593 46.2159C65.3525 47.5227 63.8089 48.7064 62.0286 49.767C60.5324 50.6572 59.3013 51.5852 58.3354 52.5511C57.3885 53.517 56.6782 54.6345 56.2047 55.9034C55.7502 57.1723 55.5135 58.7348 55.4945 60.5909V61.5568H44.7275ZM50.3525 79.7386C48.4585 79.7386 46.8392 79.0758 45.4945 77.75C44.1688 76.4053 43.5154 74.7955 43.5343 72.9205C43.5154 71.0644 44.1688 69.4735 45.4945 68.1477C46.8392 66.822 48.4585 66.1591 50.3525 66.1591C52.1517 66.1591 53.7332 66.822 55.0968 68.1477C56.4604 69.4735 57.1517 71.0644 57.1707 72.9205C57.1517 74.1705 56.8203 75.3163 56.1763 76.358C55.5513 77.3807 54.7275 78.2045 53.7047 78.8295C52.682 79.4356 51.5646 79.7386 50.3525 79.7386Z" fill="white"/>
<path d="M44.7276 61.5568H43.7276C43.7276 62.1091 44.1753 62.5568 44.7276 62.5568V61.5568ZM44.7276 60.5909L43.7276 60.5852V60.5909H44.7276ZM45.6083 52.6648L44.6499 52.3791L44.6474 52.3876L45.6083 52.6648ZM52.1992 44.5966L52.7301 45.4441L52.7413 45.4369L52.1992 44.5966ZM57.5685 39.5398L58.4419 40.0269L58.4457 40.0198L57.5685 39.5398ZM54.9264 30.4773L54.4727 31.3685L54.4792 31.3717L54.9264 30.4773ZM47.9662 30.5057L48.401 31.4063L48.4134 31.4001L47.9662 30.5057ZM45.2673 32.892L46.0971 33.4502L46.1017 33.4433L45.2673 32.892ZM44.131 36.7841V37.7841C44.669 37.7841 45.1106 37.3583 45.1303 36.8207L44.131 36.7841ZM32.5401 36.7841L31.5404 36.7591C31.5336 37.0286 31.636 37.2893 31.8242 37.4823C32.0124 37.6753 32.2705 37.7841 32.5401 37.7841V36.7841ZM35.2673 27.4091L36.0866 27.9826L36.0886 27.9796L35.2673 27.4091ZM42.1139 21.8693L42.5064 22.7891L42.5115 22.7869L42.1139 21.8693ZM61.5173 21.8977L61.1213 22.816L61.1263 22.8181L61.5173 21.8977ZM69.6992 41.6705L68.78 41.2765L68.7779 41.2815L69.6992 41.6705ZM66.6594 46.2159L67.3665 46.923L67.3716 46.9179L66.6594 46.2159ZM58.3355 52.5511L57.6284 51.844L57.6215 51.8511L58.3355 52.5511ZM56.2048 55.9034L55.2679 55.5538L55.2634 55.5662L56.2048 55.9034ZM55.4946 60.5909L54.4946 60.5807V60.5909H55.4946ZM55.4946 61.5568V62.5568C56.0469 62.5568 56.4946 62.1091 56.4946 61.5568H55.4946ZM45.4946 77.75L44.7825 78.4521C44.7858 78.4554 44.7892 78.4588 44.7925 78.4621L45.4946 77.75ZM43.5344 72.9205L44.5343 72.9306C44.5344 72.9238 44.5344 72.917 44.5343 72.9103L43.5344 72.9205ZM45.4946 68.1477L44.7925 67.4356L44.7875 67.4406L45.4946 68.1477ZM57.1708 72.9205L58.1706 72.9356C58.1708 72.9272 58.1708 72.9187 58.1707 72.9103L57.1708 72.9205ZM56.1764 76.358L55.3258 75.8321L55.3232 75.8365L56.1764 76.358ZM53.7048 78.8295L54.2147 79.6899L54.2263 79.6828L53.7048 78.8295ZM45.7276 61.5568V60.5909H43.7276V61.5568H45.7276ZM45.7276 60.5966C45.7463 57.325 46.0371 54.7862 46.5691 52.9419L44.6474 52.3876C44.0431 54.4828 43.7468 57.228 43.7276 60.5852L45.7276 60.5966ZM46.5666 52.9504C47.1207 51.0916 47.9084 49.6458 48.9003 48.5698L47.4298 47.2142C46.1869 48.5626 45.2701 50.2986 44.6499 52.3791L46.5666 52.9504ZM48.9003 48.5698C49.9505 47.4307 51.2242 46.3876 52.7301 45.4441L51.6682 43.7492C50.0302 44.7754 48.6145 45.9292 47.4298 47.2142L48.9003 48.5698ZM52.7413 45.4369C53.9515 44.6561 55.0428 43.841 56.0122 42.9903L54.693 41.487C53.8063 42.2651 52.7953 43.0219 51.657 43.7563L52.7413 45.4369ZM56.0122 42.9903C57.0179 42.1077 57.832 41.1206 58.4419 40.0269L56.6951 39.0527C56.2065 39.9288 55.5433 40.7408 54.693 41.487L56.0122 42.9903ZM58.4457 40.0198C59.0816 38.8577 59.3923 37.5732 59.3923 36.1875H57.3923C57.3923 37.2639 57.1539 38.2142 56.6912 39.0598L58.4457 40.0198ZM59.3923 36.1875C59.3923 34.7145 59.0378 33.378 58.2992 32.2142L56.6105 33.2858C57.1219 34.0917 57.3923 35.0469 57.3923 36.1875H59.3923ZM58.2992 32.2142C57.5751 31.0733 56.5939 30.193 55.3737 29.5828L54.4792 31.3717C55.3802 31.8222 56.0845 32.457 56.6105 33.2858L58.2992 32.2142ZM55.3801 29.5861C54.1861 28.9783 52.8734 28.6818 51.4605 28.6818V30.6818C52.5856 30.6818 53.5833 30.9158 54.4727 31.3685L55.3801 29.5861ZM51.4605 28.6818C50.0746 28.6818 48.7567 28.9924 47.519 29.6113L48.4134 31.4001C49.3727 30.9205 50.3843 30.6818 51.4605 30.6818V28.6818ZM47.5315 29.6051C46.2637 30.2171 45.2287 31.1365 44.433 32.3408L46.1017 33.4433C46.7075 32.5264 47.4717 31.8549 48.401 31.4063L47.5315 29.6051ZM44.4376 32.3339C43.6106 33.5632 43.1937 35.0524 43.1317 36.7475L45.1303 36.8207C45.1819 35.4097 45.5226 34.3042 46.0971 33.4502L44.4376 32.3339ZM44.131 35.7841H32.5401V37.7841H44.131V35.7841ZM33.5398 36.8091C33.6308 33.1666 34.502 30.2462 36.0866 27.9826L34.4481 26.8356C32.5857 29.4962 31.6387 32.8258 31.5404 36.7591L33.5398 36.8091ZM36.0886 27.9796C37.7023 25.6566 39.8343 23.9292 42.5064 22.7891L41.7215 20.9495C38.7117 22.2337 36.2793 24.1995 34.4461 26.8386L36.0886 27.9796ZM42.5115 22.7869C45.2141 21.6158 48.2114 21.0227 51.5173 21.0227V19.0227C47.9673 19.0227 44.6956 19.6608 41.7163 20.9518L42.5115 22.7869ZM51.5173 21.0227C55.176 21.0227 58.3704 21.6294 61.1213 22.816L61.9134 20.9795C58.8688 19.6661 55.3965 19.0227 51.5173 19.0227V21.0227ZM61.1263 22.8181C63.8693 23.9834 65.9869 25.6607 67.5169 27.8414L69.1541 26.6927C67.3887 24.1764 64.9608 22.2741 61.9084 20.9773L61.1263 22.8181ZM67.5169 27.8414C69.029 29.9965 69.8071 32.6196 69.8071 35.7614H71.8071C71.8071 32.2744 70.9375 29.2345 69.1541 26.6927L67.5169 27.8414ZM69.8071 35.7614C69.8071 37.8661 69.4565 39.698 68.78 41.2765L70.6183 42.0644C71.4191 40.1959 71.8071 38.0885 71.8071 35.7614H69.8071ZM68.7779 41.2815C68.1078 42.8687 67.1657 44.2778 65.9472 45.5139L67.3716 46.9179C68.7667 45.5026 69.8512 43.8813 70.6204 42.0594L68.7779 41.2815ZM65.9523 45.5088C64.7106 46.7505 63.2345 47.8847 61.5169 48.9079L62.54 50.6265C64.383 49.5286 65.9945 48.295 67.3665 46.923L65.9523 45.5088ZM61.5169 48.9079C59.9678 49.8295 58.6665 50.806 57.6284 51.844L59.0426 53.2582C59.9364 52.3645 61.0967 51.4851 62.54 50.6265L61.5169 48.9079ZM57.6215 51.8511C56.5764 52.9171 55.7903 54.1539 55.2679 55.5538L57.1418 56.253C57.5664 55.115 58.2007 54.117 59.0496 53.2512L57.6215 51.8511ZM55.2634 55.5662C54.7601 56.9714 54.5143 58.6521 54.4946 60.5807L56.4946 60.6011C56.5128 58.8176 56.7405 57.3733 57.1463 56.2406L55.2634 55.5662ZM54.4946 60.5909V61.5568H56.4946V60.5909H54.4946ZM55.4946 60.5568H44.7276V62.5568H55.4946V60.5568ZM50.3526 78.7386C48.7205 78.7386 47.3537 78.1786 46.1967 77.0379L44.7925 78.4621C46.325 79.973 48.1967 80.7386 50.3526 80.7386V78.7386ZM46.2067 77.0479C45.0664 75.8913 44.5181 74.5372 44.5343 72.9306L42.5344 72.9104C42.5128 75.0537 43.2713 76.9193 44.7825 78.4521L46.2067 77.0479ZM44.5343 72.9103C44.5182 71.326 45.0638 69.9927 46.2017 68.8548L44.7875 67.4406C43.2739 68.9543 42.5127 70.8028 42.5344 72.9307L44.5343 72.9103ZM46.1967 68.8598C47.3537 67.7192 48.7205 67.1591 50.3526 67.1591V65.1591C48.1967 65.1591 46.325 65.9248 44.7925 67.4356L46.1967 68.8598ZM50.3526 67.1591C51.8755 67.1591 53.2111 67.709 54.3998 68.8647L55.794 67.4307C54.2554 65.9349 52.4281 65.1591 50.3526 65.1591V67.1591ZM54.3998 68.8647C55.5776 70.0098 56.1547 71.3484 56.1708 72.9307L58.1707 72.9103C58.149 70.7804 57.3435 68.9372 55.794 67.4307L54.3998 68.8647ZM56.1709 72.9053C56.1546 73.9787 55.8728 74.9474 55.3258 75.8321L57.027 76.8838C57.768 75.6852 58.149 74.3622 58.1706 72.9356L56.1709 72.9053ZM55.3232 75.8365C54.7809 76.7239 54.0708 77.434 53.1834 77.9763L54.2263 79.6828C55.3844 78.9751 56.322 78.0375 57.0297 76.8794L55.3232 75.8365ZM53.195 77.9693C52.3298 78.482 51.389 78.7386 50.3526 78.7386V80.7386C51.7404 80.7386 53.0345 80.3893 54.2147 79.6899L53.195 77.9693Z" fill="black" fill-opacity="0.75"/>
</g>
</g>
<defs>
<clipPath id="clip0_2041_3967">
<rect width="100" height="100" fill="white"/>
</clipPath>
</defs>
</svg>
