<svg width="136" height="96" viewBox="0 0 136 96" fill="none" xmlns="http://www.w3.org/2000/svg">
<g id="Group 427320766">
<path id="Vector 39" d="M62.1248 0.0138524C50.0675 0.0138524 45.7971 1.98966 45.1691 2.97757L45.4382 5.94111H48.6679L46.7839 9.98254H31.4431C22.1847 14.9399 20.0496 31.6266 20.1393 39.3502C17.9862 39.3502 17.8068 40.9668 17.9862 41.7751C18.2015 42.8528 19.6907 42.9426 20.4084 42.8528L23.0998 70.3345C23.0998 72.2744 23.8175 73.2982 24.1764 73.5677L66.1619 77.3397L97.3819 79.4951H102.226L113.53 72.7594C114.176 72.1127 114.517 70.6938 114.607 70.0651L115.952 45.5471L116.222 45.2777V42.0445C117.298 41.6134 117.567 40.6076 117.567 40.1585C117.567 38.6497 116.491 38.0929 115.952 38.0031C115.091 25.7172 112.364 18.3348 111.108 16.1794C109.601 12.5152 105.277 11.5991 103.303 11.5991L89.0387 11.0602L86.8856 7.28825C87.5315 7.28825 89.3078 7.10863 90.1152 7.01882C90.9765 4.00122 89.2181 2.52846 88.2312 2.16928C83.2791 0.229395 68.7636 -0.0759571 62.1248 0.0138524Z" fill="url(#paint0_linear_2278_4690)"/>
<path id="Vector 1302" d="M51.3105 10.1167L54.1048 4.09429C58.0497 4.09429 58.7072 2.79215 58.5428 2.14108C63.1452 1.75044 72.5143 2.19534 76.6236 2.46662C76.2291 4.28961 79.3083 4.96238 80.8972 5.07089L83.6915 10.9305L51.3105 10.1167Z" fill="white"/>
<ellipse id="Ellipse 14" cx="68" cy="75.8781" rx="68" ry="20.1222" fill="url(#paint1_radial_2278_4690)"/>
</g>
<defs>
<linearGradient id="paint0_linear_2278_4690" x1="17.9336" y1="39.9349" x2="117.567" y2="39.9325" gradientUnits="userSpaceOnUse">
<stop stop-color="#0128FF"/>
<stop offset="1" stop-color="#AD00FF"/>
</linearGradient>
<radialGradient id="paint1_radial_2278_4690" cx="0" cy="0" r="1" gradientUnits="userSpaceOnUse" gradientTransform="translate(68 75.8781) scale(68 20.1222)">
<stop stop-color="#686868" stop-opacity="0.6"/>
<stop offset="1" stop-color="#737373" stop-opacity="0"/>
</radialGradient>
</defs>
</svg>
