<svg width="200" height="160" viewBox="0 0 200 160" fill="none" xmlns="http://www.w3.org/2000/svg">
<path fill-rule="evenodd" clip-rule="evenodd" d="M54.6714 5.99296C55.932 4.0046 64.504 0.0278808 88.7074 0.0278808C102.034 -0.152879 131.171 0.461705 141.112 4.36612C143.093 5.08904 146.623 8.05327 144.894 14.1268C143.273 14.3076 139.708 14.6691 138.411 14.6691L142.733 22.2608L171.366 23.3456C175.328 23.3456 184.008 25.1893 187.034 32.5643C189.555 36.9025 195.03 51.761 196.758 76.489C197.839 76.6697 200 77.7904 200 80.8272C200 81.731 199.46 83.7555 197.299 84.6231V91.1305L196.758 91.6728L194.057 141.02C193.877 142.286 193.193 145.142 191.896 146.443L169.205 160H159.481L96.8113 155.662L12.5314 148.07C11.8111 147.528 10.3704 145.467 10.3704 141.562L4.96788 86.25C3.5272 86.4307 0.537784 86.25 0.10558 84.0809C-0.25459 82.454 0.10558 79.2003 4.42762 79.2003C4.24752 63.6549 8.5335 30.0695 27.1183 20.0919H57.9128L61.6946 11.9577H55.2115L54.6714 5.99296ZM72.6091 8.24073L67 20.362L132 22L126.391 10.2063C123.201 9.98794 117.02 8.63385 117.812 4.96471C109.563 4.41871 90.7563 3.52326 81.5178 4.30951C81.8477 5.61992 80.5279 8.24073 72.6091 8.24073Z" fill="url(#paint0_linear_1345_2756)"/>
<defs>
<linearGradient id="paint0_linear_1345_2756" x1="-1.11682e-08" y1="80.3771" x2="200" y2="80.3722" gradientUnits="userSpaceOnUse">
<stop stop-color="#0128FF"/>
<stop offset="1" stop-color="#AD00FF"/>
</linearGradient>
</defs>
</svg>
