<svg width="24" height="24" viewBox="0 0 24 24" fill="none" xmlns="http://www.w3.org/2000/svg">
<g id="mi:heart">
<rect width="24" height="24" fill="white"/>
<path id="Vector" d="M11.9998 4.52804C10.8356 3.48411 9.30987 2.93592 7.74751 3.00019C6.18515 3.06447 4.7096 3.73614 3.6351 4.87217C2.5606 6.00819 1.97205 7.51881 1.99478 9.08233C2.0175 10.6458 2.64972 12.1387 3.75678 13.243L10.5858 20.071C10.9608 20.446 11.4695 20.6566 11.9998 20.6566C12.5301 20.6566 13.0387 20.446 13.4138 20.071L20.2428 13.243C21.3499 12.1387 21.9821 10.6458 22.0048 9.08233C22.0275 7.51881 21.439 6.00819 20.3645 4.87217C19.29 3.73614 17.8144 3.06447 16.2521 3.00019C14.6897 2.93592 13.164 3.48411 11.9998 4.52804ZM10.8278 6.17204L11.2928 6.63604C11.4803 6.82351 11.7346 6.92883 11.9998 6.92883C12.2649 6.92883 12.5193 6.82351 12.7068 6.63604L13.1718 6.17204C13.5408 5.79 13.9821 5.48527 14.4702 5.27563C14.9582 5.066 15.4831 4.95565 16.0142 4.95104C16.5453 4.94642 17.072 5.04763 17.5636 5.24875C18.0552 5.44988 18.5018 5.74689 18.8774 6.12246C19.2529 6.49803 19.5499 6.94464 19.7511 7.43622C19.9522 7.92781 20.0534 8.45453 20.0488 8.98564C20.0442 9.51676 19.9338 10.0416 19.7242 10.5297C19.5146 11.0177 19.2098 11.4591 18.8278 11.828L11.9998 18.657L5.17178 11.828C4.44315 11.0736 4.03997 10.0632 4.04909 9.01443C4.0582 7.96565 4.47888 6.9624 5.22051 6.22076C5.96214 5.47913 6.96539 5.05846 8.01418 5.04934C9.06297 5.04023 10.0734 5.44341 10.8278 6.17204Z" fill="#7F878E"/>
</g>
</svg>
