<svg width="48" height="48" viewBox="0 0 48 48" fill="none" xmlns="http://www.w3.org/2000/svg">
<g id="alert-triangle">
<path id="Vector" d="M20.5815 7.72041L3.64151 36.0004C3.29224 36.6053 3.10744 37.291 3.10548 37.9894C3.10353 38.6879 3.28449 39.3747 3.63036 39.9815C3.97623 40.5883 4.47496 41.0939 5.07692 41.4481C5.67889 41.8023 6.36311 41.9927 7.06151 42.0004H40.9415C41.6399 41.9927 42.3241 41.8023 42.9261 41.4481C43.5281 41.0939 44.0268 40.5883 44.3727 39.9815C44.7185 39.3747 44.8995 38.6879 44.8975 37.9894C44.8956 37.291 44.7108 36.6053 44.3615 36.0004L27.4215 7.72041C27.065 7.13262 26.563 6.64665 25.9639 6.30938C25.3648 5.97211 24.689 5.79492 24.0015 5.79492C23.314 5.79492 22.6382 5.97211 22.0391 6.30938C21.4401 6.64665 20.938 7.13262 20.5815 7.72041Z" stroke="#0128FF" stroke-width="4" stroke-linecap="round" stroke-linejoin="round"/>
<path id="Vector_2" d="M24 18V26" stroke="#0128FF" stroke-width="4" stroke-linecap="round" stroke-linejoin="round"/>
<path id="Vector_3" d="M24 34H24.02" stroke="#0128FF" stroke-width="4" stroke-linecap="round" stroke-linejoin="round"/>
</g>
</svg>
