<svg width="24" height="24" viewBox="0 0 24 24" fill="none" xmlns="http://www.w3.org/2000/svg">
<g id="prime:heart-fill">
<path id="Vector" d="M19.3003 5.71002C18.8413 5.24601 18.2946 4.87797 17.692 4.62731C17.0894 4.37666 16.443 4.2484 15.7903 4.25002C15.1376 4.2484 14.4912 4.37666 13.8886 4.62731C13.286 4.87797 12.7393 5.24601 12.2803 5.71002L12.0003 6.00002L11.7203 5.72001C10.792 4.79182 9.53304 4.27037 8.2203 4.27037C6.90757 4.27037 5.64859 4.79182 4.7203 5.72001C3.80417 6.65466 3.29102 7.91125 3.29102 9.22002C3.29102 10.5288 3.80417 11.7854 4.7203 12.72L11.4903 19.51C11.6309 19.6505 11.8216 19.7294 12.0203 19.7294C12.2191 19.7294 12.4097 19.6505 12.5503 19.51L19.3203 12.72C20.2368 11.7823 20.7482 10.5221 20.7445 9.21092C20.7408 7.89973 20.2221 6.64248 19.3003 5.71002Z" fill="#0128FF"/>
</g>
</svg>
