<svg width="96" height="96" viewBox="0 0 96 96" fill="none" xmlns="http://www.w3.org/2000/svg">
<path d="M44 68H52V52H68V44H52V28H44V44H28V52H44V68ZM48 88C42.4667 88 37.2667 86.95 32.4 84.85C27.5333 82.75 23.3 79.9 19.7 76.3C16.1 72.7 13.25 68.4667 11.15 63.6C9.05 58.7333 8 53.5333 8 48C8 42.4667 9.05 37.2667 11.15 32.4C13.25 27.5333 16.1 23.3 19.7 19.7C23.3 16.1 27.5333 13.25 32.4 11.15C37.2667 9.05 42.4667 8 48 8C53.5333 8 58.7333 9.05 63.6 11.15C68.4667 13.25 72.7 16.1 76.3 19.7C79.9 23.3 82.75 27.5333 84.85 32.4C86.95 37.2667 88 42.4667 88 48C88 53.5333 86.95 58.7333 84.85 63.6C82.75 68.4667 79.9 72.7 76.3 76.3C72.7 79.9 68.4667 82.75 63.6 84.85C58.7333 86.95 53.5333 88 48 88Z" fill="#5F6368"/>
</svg>
