<svg width="28" height="28" viewBox="0 0 28 28" fill="none" xmlns="http://www.w3.org/2000/svg">
<g id="refresh-cw">
<path id="Vector" d="M26.834 4.66699V11.667H19.834" stroke="#7F878E" stroke-width="2" stroke-linecap="round" stroke-linejoin="round"/>
<path id="Vector_2" d="M1.16602 23.333V16.333H8.16602" stroke="#7F878E" stroke-width="2" stroke-linecap="round" stroke-linejoin="round"/>
<path id="Vector_3" d="M4.09435 10.4992C4.68604 8.82711 5.69167 7.33216 7.01739 6.15385C8.34312 4.97553 9.94573 4.15225 11.6757 3.76083C13.4056 3.3694 15.2066 3.42259 16.9104 3.91543C18.6142 4.40827 20.1655 5.32469 21.4193 6.57919L26.8327 11.6659M1.16602 16.3325L6.57935 21.4192C7.83322 22.6737 9.38445 23.5901 11.0883 24.083C12.7921 24.5758 14.5931 24.629 16.323 24.2376C18.053 23.8461 19.6556 23.0229 20.9813 21.8445C22.307 20.6662 23.3127 19.1713 23.9043 17.4992" stroke="#7F878E" stroke-width="2" stroke-linecap="round" stroke-linejoin="round"/>
</g>
</svg>
