<svg width="186" height="74" viewBox="0 0 186 74" fill="none" xmlns="http://www.w3.org/2000/svg">
<path d="M3 57.124C30.0334 59.1213 53.2474 52.3414 68.6875 23.9288C73.885 14.3643 75.9881 -1.59777 61.3889 4.25759C47.8272 9.69678 40.5749 33.9012 45.8429 49.396C53.7482 72.6485 76.8468 73.798 94.6705 68.1891C122.246 59.5115 149.228 47.9856 173.787 30.603C178.79 27.0622 142.73 19.4831 154.738 23.9288C163.214 27.0667 170.935 27.0902 179.699 27.0902C186.011 27.0902 181.974 29.6369 178.313 33.4131C172.362 39.5503 166.512 49.4602 164.591 58.7047" stroke="url(#paint0_linear_1364_9424)" stroke-width="5" stroke-linecap="round"/>
<defs>
<linearGradient id="paint0_linear_1364_9424" x1="3" y1="37.1603" x2="183" y2="37.151" gradientUnits="userSpaceOnUse">
<stop stop-color="#0128FF"/>
<stop offset="1" stop-color="#AD00FF"/>
</linearGradient>
</defs>
</svg>
